<svg xmlns="http://www.w3.org/2000/svg" width="128" height="128" viewBox="0 0 128 128"><path d="M0 0h128v128H0V0Z" fill="#eaebee"/><path d="M13.768 71c-.512 0-.904-.136-1.176-.408-.272-.272-.408-.648-.408-1.128 0-.496.136-.872.408-1.128.272-.256.664-.384 1.176-.384h2.424V57.128h1.752l-3.504 2.136c-.368.224-.712.312-1.032.264-.304-.048-.568-.184-.792-.408-.224-.224-.376-.488-.456-.792-.064-.32-.032-.632.096-.936.128-.32.368-.592.72-.816l3.336-2.016c.336-.208.672-.376 1.008-.504.352-.128.696-.192 1.032-.192.48 0 .856.128 1.128.384.288.24.432.616.432 1.128v12.576h2.184c.496 0 .88.128 1.152.384.272.256.408.632.408 1.128 0 .496-.136.88-.408 1.152-.272.256-.656.384-1.152.384h-8.328ZM27.7026 71c-.592 0-1.032-.136-1.32-.408-.272-.288-.408-.704-.408-1.248 0-.352.088-.68.264-.984.176-.304.416-.616.72-.936l4.512-4.752c.672-.72 1.152-1.36 1.44-1.92.304-.56.456-1.12.456-1.68 0-.704-.232-1.24-.696-1.608-.448-.368-1.104-.552-1.968-.552-.464 0-.944.072-1.44.216-.48.128-.984.344-1.512.648-.352.192-.68.264-.984.216-.288-.064-.536-.2-.744-.408-.208-.224-.344-.488-.408-.792-.064-.304-.032-.608.096-.912.128-.304.368-.56.72-.768.704-.432 1.472-.752 2.304-.96.832-.224 1.656-.336 2.472-.336 1.264 0 2.328.192 3.192.576.864.368 1.52.912 1.968 1.632.448.72.672 1.6.672 2.64 0 .672-.104 1.328-.312 1.968-.208.64-.536 1.288-.984 1.944-.432.64-1.008 1.328-1.728 2.064l-4.2 4.272v-.96h6.504c.512 0 .896.128 1.152.384.272.256.408.632.408 1.128 0 .496-.136.88-.408 1.152-.256.256-.64.384-1.152.384h-8.616ZM45.9813 71.264c-1.344 0-2.4961-.192-3.4561-.576-.96-.384-1.696-.936-2.208-1.656-.512-.736-.7679-1.616-.7679-2.64 0-.8.16-1.512.48-2.136.336-.624.792-1.128 1.368-1.512.576-.384 1.224-.624 1.944-.72v.624c-1.008-.224-1.8241-.712-2.4481-1.464-.608-.768-.9119-1.688-.9119-2.76 0-.96.24-1.784.72-2.472.496-.688 1.1919-1.216 2.0879-1.584.912-.368 1.9761-.552 3.1921-.552 1.232 0 2.296.184 3.192.552.896.368 1.5919.896 2.0879 1.584.496.688.744 1.512.744 2.472 0 .72-.144 1.376-.432 1.968-.272.592-.6639 1.08-1.1759 1.464-.496.384-1.072.632-1.728.744v-.576c1.104.16 2 .632 2.688 1.416.7039.784 1.0559 1.768 1.0559 2.952 0 1.024-.256 1.904-.768 2.64-.512.72-1.2479 1.272-2.2079 1.656-.96.384-2.112.576-3.456.576Zm0-2.856c.992 0 1.744-.192 2.256-.576.512-.384.7679-.952.7679-1.704s-.2559-1.312-.7679-1.68c-.512-.384-1.264-.576-2.256-.576-.992 0-1.744.192-2.256.576-.512.368-.7681.928-.7681 1.68 0 .752.2561 1.32.7681 1.704.512.384 1.264.576 2.256.576Zm0-7.392c.544 0 1.0079-.088 1.3919-.264.4-.176.696-.432.888-.768.208-.336.312-.72.312-1.152 0-.672-.2319-1.2-.6959-1.584-.448-.384-1.08-.576-1.896-.576-.816 0-1.448.192-1.896.576-.448.384-.6721.912-.6721 1.584s.2241 1.208.6721 1.608c.448.384 1.08.576 1.896.576ZM60.5794 69.008c-.288.304-.6.448-.936.432-.32-.032-.6-.16-.84-.384-.224-.24-.344-.52-.36-.84-.016-.336.12-.656.408-.96l3.12-3.12-3.168-3.168c-.24-.24-.376-.496-.408-.768-.016-.272.032-.512.144-.72.128-.224.304-.4.528-.528.224-.128.464-.168.72-.12.272.032.536.168.792.408l3.144 3.144 3.144-3.144c.304-.304.624-.44.96-.408.336.016.616.144.84.384.24.224.368.496.384.816.032.32-.104.632-.408.936l-3.168 3.168 3.12 3.12c.24.256.376.52.408.792.032.256-.016.496-.144.72-.128.208-.304.376-.528.504-.208.128-.448.176-.72.144-.256-.032-.504-.168-.744-.408l-3.144-3.12-3.144 3.12ZM78.0336 71c-.512 0-.904-.136-1.176-.408-.272-.272-.408-.648-.408-1.128 0-.496.136-.872.408-1.128.272-.256.664-.384 1.176-.384h2.424V57.128h1.752l-3.504 2.136c-.368.224-.712.312-1.032.264-.304-.048-.568-.184-.792-.408-.224-.224-.376-.488-.456-.792-.064-.32-.032-.632.096-.936.128-.32.368-.592.72-.816l3.336-2.016c.336-.208.672-.376 1.008-.504.352-.128.696-.192 1.032-.192.48 0 .856.128 1.128.384.288.24.432.616.432 1.128v12.576h2.184c.496 0 .88.128 1.152.384.272.256.408.632.408 1.128 0 .496-.136.88-.408 1.152-.272.256-.656.384-1.152.384h-8.328ZM91.9682 71c-.592 0-1.032-.136-1.32-.408-.272-.288-.408-.704-.408-1.248 0-.352.088-.68.264-.984.176-.304.4161-.616.7201-.936l4.512-4.752c.672-.72 1.152-1.36 1.44-1.92.304-.56.4559-1.12.4559-1.68 0-.704-.232-1.24-.696-1.608-.448-.368-1.104-.552-1.968-.552-.464 0-.9439.072-1.4399.216-.48.128-.984.344-1.512.648-.352.192-.6801.264-.9841.216-.288-.064-.5359-.2-.7439-.408-.208-.224-.3441-.488-.4081-.792-.064-.304-.032-.608.096-.912.128-.304.3681-.56.7201-.768.704-.432 1.472-.752 2.304-.96.832-.224 1.656-.336 2.472-.336 1.264 0 2.328.192 3.192.576.864.368 1.5197.912 1.9677 1.632.448.72.672 1.6.672 2.64 0 .672-.104 1.328-.312 1.968-.208.64-.536 1.288-.984 1.944-.4318.64-1.0077 1.328-1.7277 2.064l-4.2 4.272v-.96h6.5037c.512 0 .896.128 1.152.384.272.256.408.632.408 1.128 0 .496-.136.88-.408 1.152-.256.256-.64.384-1.152.384h-8.6158ZM110.247 71.264c-1.344 0-2.496-.192-3.456-.576-.96-.384-1.696-.936-2.208-1.656-.512-.736-.768-1.616-.768-2.64 0-.8.16-1.512.48-2.136.336-.624.792-1.128 1.368-1.512.576-.384 1.224-.624 1.944-.72v.624c-1.008-.224-1.824-.712-2.448-1.464-.608-.768-.912-1.688-.912-2.76 0-.96.24-1.784.72-2.472.496-.688 1.192-1.216 2.088-1.584.912-.368 1.976-.552 3.192-.552 1.232 0 2.296.184 3.192.552.896.368 1.592.896 2.088 1.584.496.688.744 1.512.744 2.472 0 .72-.144 1.376-.432 1.968-.272.592-.664 1.08-1.176 1.464-.496.384-1.072.632-1.728.744v-.576c1.104.16 2 .632 2.688 1.416.704.784 1.056 1.768 1.056 2.952 0 1.024-.256 1.904-.768 2.64-.512.72-1.248 1.272-2.208 1.656-.96.384-2.112.576-3.456.576Zm0-2.856c.992 0 1.744-.192 2.256-.576.512-.384.768-.952.768-1.704s-.256-1.312-.768-1.68c-.512-.384-1.264-.576-2.256-.576-.992 0-1.744.192-2.256.576-.512.368-.768.928-.768 1.68 0 .752.256 1.32.768 1.704.512.384 1.264.576 2.256.576Zm0-7.392c.544 0 1.008-.088 1.392-.264.4-.176.696-.432.888-.768.208-.336.312-.72.312-1.152 0-.672-.232-1.2-.696-1.584-.448-.384-1.08-.576-1.896-.576-.816 0-1.448.192-1.896.576-.448.384-.672.912-.672 1.584s.224 1.208.672 1.608c.448.384 1.08.576 1.896.576Z" fill="#435069"/></svg>
