<svg xmlns="http://www.w3.org/2000/svg" width="300" height="200" viewBox="0 0 300 200"><path d="M0 0h300v200H0V0Z" fill="#eaebee"/><path d="M55.584 115.528c-1.696 0-3.424-.192-5.184-.576-1.728-.416-3.232-.992-4.512-1.728-.832-.448-1.408-.976-1.728-1.584-.288-.64-.4-1.264-.336-1.872.096-.608.352-1.136.768-1.584.416-.48.944-.784 1.584-.912.672-.128 1.408 0 2.208.384 1.248.608 2.432 1.04 3.552 1.296s2.24.384 3.36.384c1.28 0 2.352-.16 3.216-.48.864-.352 1.52-.848 1.968-1.488.448-.64.672-1.44.672-2.4 0-1.344-.464-2.352-1.392-3.024-.928-.672-2.288-1.008-4.08-1.008h-2.832c-1.056 0-1.872-.256-2.448-.768-.544-.544-.816-1.28-.816-2.208 0-.96.272-1.696.816-2.208.576-.544 1.392-.816 2.448-.816h2.112c1.088 0 2-.16 2.736-.48.768-.352 1.36-.832 1.776-1.44.448-.608.672-1.36.672-2.256 0-1.28-.448-2.256-1.344-2.928-.864-.672-2.128-1.008-3.792-1.008-1.024 0-2.032.128-3.024.384-.992.224-2.064.64-3.216 1.248-.704.352-1.36.464-1.968.336-.608-.128-1.12-.416-1.536-.864-.384-.448-.64-.96-.768-1.536-.096-.608-.016-1.216.24-1.824.288-.608.8-1.104 1.536-1.488 1.376-.8 2.864-1.408 4.464-1.824 1.632-.416 3.28-.624 4.944-.624 2.432 0 4.512.368 6.24 1.104 1.728.736 3.056 1.792 3.984 3.168.928 1.344 1.392 2.976 1.392 4.896 0 1.312-.256 2.512-.768 3.6s-1.232 2.016-2.16 2.784c-.896.736-2 1.264-3.312 1.584v-.624c2.272.384 4.048 1.328 5.328 2.832 1.28 1.504 1.92 3.392 1.92 5.664 0 2.016-.512 3.776-1.536 5.28-1.024 1.472-2.496 2.608-4.416 3.408-1.888.8-4.144 1.2-6.768 1.2ZM85.1813 115.528c-4.096 0-7.2321-1.52-9.4081-4.56-2.144-3.072-3.2159-7.408-3.2159-13.008 0-3.744.48-6.896 1.44-9.456.992-2.592 2.4159-4.544 4.2719-5.856 1.888-1.344 4.1921-2.016 6.9121-2.016 4.128 0 7.2639 1.488 9.4079 4.464 2.144 2.944 3.2161 7.232 3.2161 12.864 0 3.744-.496 6.928-1.488 9.552-.96 2.592-2.368 4.576-4.224 5.952-1.856 1.376-4.16 2.064-6.912 2.064Zm0-6.048c1.856 0 3.2319-.912 4.1279-2.736.8961-1.856 1.3441-4.784 1.3441-8.784 0-4-.448-6.88-1.3441-8.64-.896-1.76-2.2719-2.64-4.1279-2.64-1.856 0-3.232.88-4.128 2.64-.896 1.76-1.344 4.64-1.344 8.64 0 4 .448 6.928 1.344 8.784.896 1.824 2.272 2.736 4.128 2.736ZM113.963 115.528c-4.096 0-7.233-1.52-9.409-4.56-2.144-3.072-3.215-7.408-3.215-13.008 0-3.744.48-6.896 1.44-9.456.992-2.592 2.415-4.544 4.271-5.856 1.888-1.344 4.193-2.016 6.913-2.016 4.128 0 7.263 1.488 9.407 4.464 2.144 2.944 3.217 7.232 3.217 12.864 0 3.744-.496 6.928-1.488 9.552-.96 2.592-2.368 4.576-4.224 5.952-1.856 1.376-4.16 2.064-6.912 2.064Zm0-6.048c1.856 0 3.231-.912 4.127-2.736.897-1.856 1.345-4.784 1.345-8.784 0-4-.448-6.88-1.345-8.64-.896-1.76-2.271-2.64-4.127-2.64-1.856 0-3.232.88-4.128 2.64-.896 1.76-1.344 4.64-1.344 8.64 0 4 .448 6.928 1.344 8.784.896 1.824 2.272 2.736 4.128 2.736ZM143.159 111.016c-.576.608-1.2.896-1.872.864-.64-.064-1.2-.32-1.68-.768-.448-.48-.688-1.04-.72-1.68-.032-.672.24-1.312.816-1.92l6.24-6.24-6.336-6.336c-.48-.48-.752-.992-.816-1.536-.032-.544.064-1.024.288-1.44.256-.448.608-.8 1.056-1.056.448-.256.928-.336 1.44-.24.544.064 1.072.336 1.584.816l6.288 6.288 6.288-6.288c.608-.608 1.248-.88 1.92-.816.672.032 1.232.288 1.68.768.48.448.736.992.768 1.632.064.64-.208 1.264-.816 1.872l-6.336 6.336 6.24 6.24c.48.512.752 1.04.816 1.584.064.512-.032.992-.288 1.44-.256.416-.608.752-1.056 1.008-.416.256-.896.352-1.44.288-.512-.064-1.008-.336-1.488-.816l-6.288-6.24-6.288 6.24ZM177.155 115c-1.184 0-2.064-.272-2.64-.816-.544-.576-.816-1.408-.816-2.496 0-.704.176-1.36.528-1.968.352-.608.832-1.232 1.44-1.872l9.024-9.504c1.344-1.44 2.304-2.72 2.88-3.84.608-1.12.912-2.24.912-3.36 0-1.408-.464-2.48-1.392-3.216-.896-.736-2.208-1.104-3.936-1.104-.928 0-1.888.144-2.88.432-.96.256-1.968.688-3.024 1.296-.704.384-1.36.528-1.968.432-.576-.128-1.072-.4-1.488-.816-.416-.448-.688-.976-.816-1.584-.128-.608-.064-1.216.192-1.824.256-.608.736-1.12 1.44-1.536 1.408-.864 2.944-1.504 4.608-1.92 1.664-.448 3.312-.672 4.944-.672 2.528 0 4.656.384 6.384 1.152 1.728.736 3.04 1.824 3.936 3.264.896 1.44 1.344 3.2 1.344 5.28 0 1.344-.208 2.656-.624 3.936-.416 1.28-1.072 2.576-1.968 3.888-.864 1.28-2.016 2.656-3.456 4.128l-8.4 8.544v-1.92h13.008c1.024 0 1.792.256 2.304.768.544.512.816 1.264.816 2.256 0 .992-.272 1.76-.816 2.304-.512.512-1.28.768-2.304.768h-17.232ZM213.712 115.528c-4.096 0-7.231-1.52-9.407-4.56-2.144-3.072-3.216-7.408-3.216-13.008 0-3.744.48-6.896 1.44-9.456.992-2.592 2.416-4.544 4.272-5.856 1.888-1.344 4.191-2.016 6.911-2.016 4.128 0 7.264 1.488 9.408 4.464 2.144 2.944 3.217 7.232 3.217 12.864 0 3.744-.497 6.928-1.489 9.552-.96 2.592-2.368 4.576-4.224 5.952-1.856 1.376-4.16 2.064-6.912 2.064Zm0-6.048c1.856 0 3.232-.912 4.128-2.736.897-1.856 1.345-4.784 1.345-8.784 0-4-.448-6.88-1.345-8.64-.896-1.76-2.272-2.64-4.128-2.64-1.856 0-3.231.88-4.127 2.64-.896 1.76-1.345 4.64-1.345 8.64 0 4 .449 6.928 1.345 8.784.896 1.824 2.271 2.736 4.127 2.736ZM242.494 115.528c-4.096 0-7.232-1.52-9.408-4.56-2.144-3.072-3.216-7.408-3.216-13.008 0-3.744.48-6.896 1.44-9.456.992-2.592 2.416-4.544 4.272-5.856 1.888-1.344 4.192-2.016 6.912-2.016 4.128 0 7.264 1.488 9.408 4.464 2.144 2.944 3.216 7.232 3.216 12.864 0 3.744-.496 6.928-1.488 9.552-.96 2.592-2.368 4.576-4.224 5.952-1.856 1.376-4.16 2.064-6.912 2.064Zm0-6.048c1.856 0 3.232-.912 4.128-2.736.896-1.856 1.344-4.784 1.344-8.784 0-4-.448-6.88-1.344-8.64-.896-1.76-2.272-2.64-4.128-2.64-1.856 0-3.232.88-4.128 2.64-.896 1.76-1.344 4.64-1.344 8.64 0 4 .448 6.928 1.344 8.784.896 1.824 2.272 2.736 4.128 2.736Z" fill="#435069"/></svg>
