<svg xmlns="http://www.w3.org/2000/svg" viewBox="0 0 20 20"><path d="M8.5 2C9.60457 2 10.5 2.89543 10.5 4V5H11.1211C14.3153 5.00004 15 5.68473 15 8.87891V9.5H16C17.1046 9.5 18 10.3954 18 11.5C18 12.6046 17.1046 13.5 16 13.5H15V14.1211C15 17.3153 14.3153 18 11.1211 18H5.87891C2.68473 18 2.00004 17.3153 2 14.1211V8.87891C2.00004 5.68473 2.68473 5.00004 5.87891 5H6.5V4C6.5 2.89543 7.39543 2 8.5 2ZM8.5 7.5C8.34375 7.5 8.20312 7.59727 8.14844 7.74414L7.22168 10.2217L4.74414 11.1484C4.59727 11.2031 4.5 11.3438 4.5 11.5C4.5 11.6562 4.59727 11.7969 4.74414 11.8516L7.22168 12.7793L8.15039 15.2578C8.20355 15.4031 8.3438 15.5 8.5 15.5C8.65625 15.5 8.79688 15.4027 8.85156 15.2559L9.7793 12.7783L12.2578 11.8496C12.4031 11.7964 12.5 11.6562 12.5 11.5C12.5 11.3438 12.4027 11.2031 12.2559 11.1484L9.77832 10.2217L8.85156 7.74414C8.79688 7.59727 8.65625 7.5 8.5 7.5Z" fill="url(#g)" style="filter:grayscale(100%)"/><defs><linearGradient id="g" x1="2" y1="5" x2="15" y2="18" gradientUnits="userSpaceOnUse"><stop stop-color="#119ee2"/><stop offset="0.33" stop-color="#256bb1"/><stop offset="1" stop-color="#3b1c66"/></linearGradient></defs></svg>
