<svg
    xmlns="http://www.w3.org/2000/svg"
    width="64"
    height="64"
    viewBox="0 0 80 37"
    fill="none"
>
    <rect
        x="26"
        width="28"
        height="16"
        rx="8"
        fill="var(--pc-form-control-activated-color)"
    />
    <circle
        cx="46"
        cy="8"
        r="6"
        fill="var(--pc-color-surface-default)"
    />
    <circle
        cx="72"
        cy="8"
        r="7"
        fill="var(--pc-form-control-activated-color)"
        stroke="var(--pc-form-control-activated-color)"
        stroke-width="2"
    />
    <circle
        cx="72"
        cy="8"
        r="4"
        fill="var(--pc-color-surface-default)"
    />
    <path
        d="M0 3C0 1.34315 1.34315 0 3 0H13C14.6569 0 16 1.34315 16 3V13C16 14.6569 14.6569 16 13 16H3C1.34315 16 0 14.6569 0 13V3Z"
        fill="var(--pc-form-control-activated-color)"
    />
    <path
        d="M12.5977 4.65234C12.877 4.91016 12.877 5.36133 12.5977 5.61914L7.09766 11.1191C6.83984 11.3984 6.38867 11.3984 6.13086 11.1191L3.38086 8.36914C3.10156 8.11133 3.10156 7.66016 3.38086 7.40234C3.63867 7.12305 4.08984 7.12305 4.34766 7.40234L6.625 9.6582L11.6309 4.65234C11.8887 4.37305 12.3398 4.37305 12.5977 4.65234Z"
        fill="var(--pc-color-primary-on-loud)"
    />
    <rect
        y="26"
        width="80"
        height="4"
        rx="2"
        fill="url(#slider-track-gradient)"
    />
    <rect
        x="49"
        y="20"
        width="16"
        height="16"
        rx="8"
        fill="var(--pc-form-control-activated-color)"
        stroke="var(--pc-color-surface-default)"
        stroke-width="2"
    />
    <defs>
        <linearGradient
            id="slider-track-gradient"
            x1="0%"
            y1="0%"
            x2="100%"
            y2="0%"
        >
            <stop stop-color="var(--pc-form-control-activated-color)" />
            <stop
                offset="0.61"
                stop-color="var(--pc-form-control-activated-color)"
            />
            <stop
                offset="0.61"
                stop-color="var(--pc-color-neutral-border-normal)"
            />
            <stop
                offset="1"
                stop-color="var(--pc-color-neutral-border-normal)"
            />
        </linearGradient>
    </defs>
</svg>
