<svg
    xmlns="http://www.w3.org/2000/svg"
    width="750"
    height="750"
    viewBox="0 0 100 100"
>
    <path
        d="M42.412 15.874C52.755 12.556 59.644-1.606 70.358.15c9.4 1.54 11.983 14.472 16.374 22.986 4.23 8.2 11.181 16.86 8.774 25.778-2.485 9.209-16.264 10.405-20.801 18.783-4.722 8.718 2.458 22.35-4.995 28.85-7 6.107-18.78 2.976-27.298-.683-7.62-3.273-9.954-13.038-16.512-18.136-5.371-4.175-13.85-3.341-18.037-8.718-4.275-5.49-5.696-13.24-4.403-20.096 1.239-6.562 7.867-10.368 11.237-16.12 3.328-5.683 2.85-14.075 8.452-17.495 5.589-3.411 13.036 2.574 19.263.575"
        fill="url(#a)"
    />
    <circle cx="12.25" cy="70.25" r="0.25" fill="#fff" fill-opacity="0.5" />
    <circle cx="33.25" cy="40.25" r="0.25" fill="#fff" fill-opacity="0.5" />
    <circle cx="76.25" cy="31.25" r="0.25" fill="#fff" fill-opacity="0.5" />
    <circle cx="41.25" cy="22.25" r="0.25" fill="#fff" fill-opacity="0.5" />
    <circle cx="27.25" cy="19.25" r="0.25" fill="#fff" fill-opacity="0.5" />
    <circle cx="4.25" cy="53.25" r="0.25" fill="#fff" fill-opacity="0.5" />
    <circle cx="22.25" cy="37.25" r="0.25" fill="#fff" fill-opacity="0.5" />
    <circle cx="66.25" cy="55.25" r="0.25" fill="#fff" fill-opacity="0.5" />
    <circle cx="48.25" cy="61.25" r="0.25" fill="#fff" fill-opacity="0.5" />
    <circle cx="67.25" cy="91.25" r="0.25" fill="#fff" fill-opacity="0.5" />
    <circle cx="61.25" cy="26.25" r="0.25" fill="#fff" fill-opacity="0.5" />
    <circle cx="77.25" cy="14.25" r="0.25" fill="#fff" fill-opacity="0.5" />
    <circle cx="34.25" cy="68.25" r="0.25" fill="#fff" fill-opacity="0.5" />
    <circle cx="91.25" cy="44.25" r="0.25" fill="#fff" fill-opacity="0.5" />
    <circle cx="54.25" cy="42.25" r="0.25" fill="#fff" fill-opacity="0.5" />
    <circle cx="63.25" cy="7.25" r="0.25" fill="#fff" fill-opacity="0.5" />
    <circle cx="33.25" cy="50.25" r="0.25" fill="#fff" fill-opacity="0.5" />
    <circle cx="23.25" cy="61.25" r="0.25" fill="#fff" fill-opacity="0.5" />
    <circle cx="16.25" cy="46.25" r="0.25" fill="#fff" fill-opacity="0.5" />
    <circle cx="37.25" cy="78.25" r="0.25" fill="#fff" fill-opacity="0.5" />
    <circle cx="22.25" cy="74.25" r="0.25" fill="#fff" fill-opacity="0.5" />
    <circle cx="28.25" cy="29.25" r="0.25" fill="#fff" fill-opacity="0.5" />
    <circle cx="46.25" cy="91.25" r="0.25" fill="#fff" fill-opacity="0.5" />
    <circle cx="51.25" cy="82.25" r="0.25" fill="#fff" fill-opacity="0.5" />
    <circle cx="62.25" cy="72.25" r="0.25" fill="#fff" fill-opacity="0.5" />
    <path
        d="M65.24 98.637v.01a.385.385 0 0 1-.284.396l-.236.063a.4.4 0 0 0-.078.032l-.254.14a.36.36 0 0 1-.428-.57l.026-.025a.4.4 0 0 0 .118-.274v-.014a.27.27 0 0 1 .438-.204l.018.014c.076.061.173.09.27.081.211-.02.397.14.41.35"
        fill="#000"
        fill-opacity="0.4"
    />
    <path
        d="M63.917 98.41c.057.213.022.339-.17.39-.193.052-.304-.104-.36-.316-.058-.213.024-.42.153-.454.128-.035.32.167.377.38m.703-.328c.127.18.245.235.409.12s.115-.299-.011-.48c-.127-.18-.338-.25-.447-.173-.109.076-.077.353.05.533"
        fill="#000"
        fill-opacity="0.4"
    />
    <path
        d="M64.047 97.743c.06.167.141.233.292.178.151-.054.152-.208.092-.375-.061-.166-.21-.265-.311-.228s-.134.259-.073.425m-.039.018c.089.154.087.259-.052.34-.139.08-.257-.018-.346-.172s-.068-.332.025-.385c.093-.054.284.064.373.217m1.232-3.124v.01a.385.385 0 0 1-.284.396l-.236.063a.4.4 0 0 0-.078.032l-.254.14a.36.36 0 0 1-.428-.57l.026-.025a.4.4 0 0 0 .118-.274v-.014a.27.27 0 0 1 .438-.204l.018.014c.076.061.173.09.27.081.211-.02.397.14.41.35"
        fill="#000"
        fill-opacity="0.4"
    />
    <path
        d="M63.917 94.41c.057.213.022.339-.17.39-.193.052-.304-.104-.36-.316-.058-.213.024-.42.153-.454.128-.035.32.167.377.38m.703-.328c.127.18.245.235.409.12s.115-.299-.011-.48c-.127-.18-.338-.25-.447-.173-.109.076-.077.353.05.533"
        fill="#000"
        fill-opacity="0.4"
    />
    <path
        d="M64.047 93.743c.06.167.141.233.292.178.151-.054.152-.208.092-.375-.061-.166-.21-.265-.311-.228s-.134.259-.073.425m-.039.018c.089.154.087.259-.052.34-.139.08-.257-.018-.346-.172s-.068-.332.025-.385c.093-.054.284.064.373.217m-2.268-1.124v.01a.385.385 0 0 1-.284.396l-.236.063a.4.4 0 0 0-.078.032l-.254.14a.36.36 0 0 1-.428-.57l.026-.025a.4.4 0 0 0 .118-.274v-.014a.27.27 0 0 1 .438-.204l.018.014c.076.061.173.09.27.081.211-.02.397.14.41.35"
        fill="#000"
        fill-opacity="0.4"
    />
    <path
        d="M60.417 92.41c.057.213.022.339-.17.39-.193.052-.304-.104-.36-.316-.058-.213.024-.42.153-.454.128-.035.32.167.377.38m.703-.328c.127.18.245.235.409.12s.115-.299-.011-.48c-.127-.18-.338-.25-.447-.173-.109.076-.077.353.05.533"
        fill="#000"
        fill-opacity="0.4"
    />
    <path
        d="M60.547 91.743c.06.167.141.233.292.178.151-.054.152-.208.092-.375-.061-.166-.21-.265-.311-.228s-.134.259-.073.425m-.039.018c.088.154.087.259-.052.34-.139.08-.257-.018-.346-.172s-.068-.332.025-.385c.093-.054.284.064.373.217m1.232-3.124v.01a.385.385 0 0 1-.284.396l-.236.063a.4.4 0 0 0-.078.032l-.254.14a.36.36 0 0 1-.428-.57l.026-.025a.4.4 0 0 0 .118-.274v-.014a.27.27 0 0 1 .438-.204l.018.014c.076.061.173.09.27.081.211-.02.397.14.41.35"
        fill="#000"
        fill-opacity="0.4"
    />
    <path
        d="M60.417 88.41c.057.213.022.339-.17.39-.193.052-.304-.104-.36-.316-.058-.213.024-.42.153-.454.128-.035.32.167.377.38m.703-.328c.127.18.245.235.409.12s.115-.299-.011-.48c-.127-.18-.338-.25-.447-.173-.109.076-.077.353.05.533"
        fill="#000"
        fill-opacity="0.4"
    />
    <path
        d="M60.547 87.743c.06.167.141.233.292.178.151-.054.152-.208.092-.375-.061-.166-.21-.265-.311-.228s-.134.259-.073.425m-.039.018c.088.154.087.259-.052.34-.139.08-.257-.018-.346-.172s-.068-.332.025-.385c.093-.054.284.064.373.217m-2.268.876v.01a.385.385 0 0 1-.284.396l-.236.063a.4.4 0 0 0-.078.032l-.254.14a.36.36 0 0 1-.428-.57l.026-.025a.4.4 0 0 0 .118-.274v-.014a.27.27 0 0 1 .438-.204l.018.014c.076.061.173.09.27.081.211-.02.397.14.41.35"
        fill="#000"
        fill-opacity="0.4"
    />
    <path
        d="M56.917 88.41c.057.213.022.339-.17.39-.193.052-.304-.104-.36-.316-.058-.213.024-.42.153-.454.128-.035.32.167.377.38m.703-.328c.127.18.245.235.409.12s.115-.299-.011-.48c-.127-.18-.338-.25-.447-.173-.109.076-.077.353.05.533"
        fill="#000"
        fill-opacity="0.4"
    />
    <path
        d="M57.047 87.743c.06.167.141.233.292.178.151-.054.152-.208.092-.375-.061-.166-.21-.265-.311-.228s-.134.259-.073.425m-.039.018c.088.154.087.259-.052.34-.139.08-.257-.018-.346-.172s-.068-.332.025-.385c.093-.054.284.064.373.217m1.232-3.124v.01a.385.385 0 0 1-.284.396l-.236.063a.4.4 0 0 0-.078.032l-.254.14a.36.36 0 0 1-.428-.57l.026-.025a.4.4 0 0 0 .118-.274v-.014a.27.27 0 0 1 .438-.204l.018.014c.076.061.173.09.27.081.211-.02.397.14.41.35"
        fill="#000"
        fill-opacity="0.4"
    />
    <path
        d="M56.917 84.41c.057.213.022.339-.17.39-.193.052-.304-.104-.36-.316-.058-.213.024-.42.153-.454.128-.035.32.167.377.38m.703-.328c.127.18.245.235.409.12s.115-.299-.011-.48c-.127-.18-.338-.25-.447-.173-.109.076-.077.353.05.533"
        fill="#000"
        fill-opacity="0.4"
    />
    <path
        d="M57.047 83.743c.06.167.141.233.292.178.151-.054.152-.208.092-.375-.061-.166-.21-.265-.311-.228s-.134.259-.073.425m-.039.018c.088.154.087.259-.052.34-.139.08-.257-.018-.346-.172s-.068-.332.025-.385c.093-.054.284.064.373.217m-2.268-1.124v.01a.385.385 0 0 1-.284.396l-.236.063a.4.4 0 0 0-.078.032l-.254.14a.36.36 0 0 1-.428-.57l.026-.025a.4.4 0 0 0 .118-.274v-.014a.27.27 0 0 1 .438-.204l.018.014c.076.061.173.09.27.081.211-.02.397.14.41.35"
        fill="#000"
        fill-opacity="0.4"
    />
    <path
        d="M53.417 82.41c.057.213.022.339-.17.39-.193.052-.304-.104-.36-.316-.058-.213.024-.42.153-.454.128-.035.32.167.377.38m.703-.328c.127.18.245.235.409.12s.115-.299-.011-.48c-.127-.18-.338-.25-.447-.173-.109.076-.077.353.05.533"
        fill="#000"
        fill-opacity="0.4"
    />
    <path
        d="M53.547 81.743c.06.167.141.233.292.178.151-.054.152-.208.092-.375-.061-.166-.21-.265-.311-.228s-.134.259-.073.425m-.039.018c.088.154.087.259-.052.34-.139.08-.257-.018-.346-.172s-.068-.332.025-.385c.093-.054.284.064.373.217m1.232-3.124v.01a.385.385 0 0 1-.284.396l-.236.063a.4.4 0 0 0-.078.032l-.254.14a.36.36 0 0 1-.428-.57l.026-.025a.4.4 0 0 0 .118-.274v-.014a.27.27 0 0 1 .438-.204l.018.014c.076.061.173.09.27.081.211-.02.397.14.41.35"
        fill="#000"
        fill-opacity="0.4"
    />
    <path
        d="M53.417 78.41c.057.213.022.339-.17.39-.193.052-.304-.104-.36-.316-.058-.213.024-.42.153-.454.128-.035.32.167.377.38m.703-.328c.127.18.245.235.409.12s.115-.299-.011-.48c-.127-.18-.338-.25-.447-.173-.109.076-.077.353.05.533"
        fill="#000"
        fill-opacity="0.4"
    />
    <path
        d="M53.547 77.743c.06.167.141.233.292.178.151-.054.152-.208.092-.375-.061-.166-.21-.265-.311-.228s-.134.259-.073.425m-.039.018c.088.154.087.259-.052.34-.139.08-.257-.018-.346-.172s-.068-.332.025-.385c.093-.054.284.064.373.217"
        fill="#000"
        fill-opacity="0.4"
    />
    <path
        d="M69.36 39.38a.15.15 0 0 1 .28 0l.106.284a1 1 0 0 0 .59.59l.284.105a.15.15 0 0 1 0 .282l-.284.105a1 1 0 0 0-.59.59l-.105.284a.15.15 0 0 1-.282 0l-.105-.284a1 1 0 0 0-.59-.59l-.284-.105a.15.15 0 0 1 0-.282l.284-.105a1 1 0 0 0 .59-.59zm-56 17a.15.15 0 0 1 .28 0l.106.284a1 1 0 0 0 .59.59l.284.105a.15.15 0 0 1 0 .282l-.284.105a1 1 0 0 0-.59.59l-.105.284a.15.15 0 0 1-.282 0l-.105-.284a1 1 0 0 0-.59-.59l-.284-.105a.15.15 0 0 1 0-.282l.284-.105a1 1 0 0 0 .59-.59zm32-25a.15.15 0 0 1 .28 0l.106.284a1 1 0 0 0 .59.59l.284.105a.15.15 0 0 1 0 .282l-.284.105a1 1 0 0 0-.59.59l-.105.284a.15.15 0 0 1-.282 0l-.105-.284a1 1 0 0 0-.59-.59l-.284-.105a.15.15 0 0 1 0-.282l.284-.105a1 1 0 0 0 .59-.59zm24-29a.15.15 0 0 1 .28 0l.106.284a1 1 0 0 0 .59.59l.284.105a.15.15 0 0 1 0 .282l-.284.105a1 1 0 0 0-.59.59l-.105.284a.15.15 0 0 1-.282 0l-.105-.284a1 1 0 0 0-.59-.59l-.284-.105a.15.15 0 0 1 0-.282l.284-.105a1 1 0 0 0 .59-.59zm-31 80a.15.15 0 0 1 .28 0l.106.284a1 1 0 0 0 .59.59l.284.105a.15.15 0 0 1 0 .282l-.284.105a1 1 0 0 0-.59.59l-.105.284a.15.15 0 0 1-.282 0l-.105-.284a1 1 0 0 0-.59-.59l-.284-.105a.15.15 0 0 1 0-.282l.284-.105a1 1 0 0 0 .59-.59zm33-19a.15.15 0 0 1 .28 0l.106.284a1 1 0 0 0 .59.59l.284.105a.15.15 0 0 1 0 .282l-.284.105a1 1 0 0 0-.59.59l-.105.284a.15.15 0 0 1-.282 0l-.105-.284a1 1 0 0 0-.59-.59l-.284-.105a.15.15 0 0 1 0-.282l.284-.105a1 1 0 0 0 .59-.59z"
        fill="#fff"
        fill-opacity="0.9"
    />
    <defs>
        <radialGradient
            id="a"
            cx="0"
            cy="0"
            r="1"
            gradientUnits="userSpaceOnUse"
            gradientTransform="matrix(28.5 -48.99996 45.56995 26.505 39.5 85.5)"
        >
            <stop stop-color="#0b354b" />
            <stop offset="1" stop-color="#021925" />
        </radialGradient>
    </defs>
</svg>
