<svg
    xmlns="http://www.w3.org/2000/svg"
    width="64"
    height="64"
    viewBox="0 0 48 48"
>
    <g transform="translate(8 8)">
        <circle
            cx="16"
            cy="16"
            r="15.3333"
            fill="var(--pc-color-neutral-fill-normal)"
            stroke="var(--pc-color-neutral-fill-normal)"
            stroke-width="1.3333"
        />
        <path
            d="M16 15.8333C14.6823 15.8333 13.4792 15.1458 12.8203 14.0001C12.1615 12.8828 12.1615 11.5458 12.8203 10.4271C13.4792 9.30989 14.6823 8.5 16 8.5C17.2889 8.5 18.4919 9.30989 19.1508 10.4271C19.8096 11.5458 19.8096 12.8828 19.1508 14.0001C18.4919 15.1458 17.2889 15.8333 16 15.8333ZM14.6823 17.2083H17.289C20.125 17.2083 22.4167 19.5 22.4167 22.336C22.4167 22.7943 21.9856 23.1667 21.5273 23.1667H10.4141C9.95583 23.1667 9.58333 22.7943 9.58333 22.336C9.58333 19.5 11.8403 17.2083 14.6823 17.2083Z"
            fill="var(--pc-color-neutral-on-normal)"
        />
    </g>
</svg>
