<svg
    xmlns="http://www.w3.org/2000/svg"
    width="64"
    height="64"
    viewBox="0 0 32 32"
>
    <g transform="translate(8 8)">
        <path
            d="M0 3C0 1.34315 1.34315 0 3 0H13C14.6569 0 16 1.34315 16 3V13C16 14.6569 14.6569 16 13 16H3C1.34315 16 0 14.6569 0 13V3Z"
            fill="var(--pc-color-neutral-fill-normal)"
        />
        <path
            d="M7.75 4H9.6875C9.875 4 10.0781 4.09375 10.2188 4.23438L11.2656 5.28125C11.4062 5.42188 11.5 5.625 11.5 5.8125V9.25C11.5 9.67188 11.1562 10 10.75 10H7.75C7.32812 10 7 9.67188 7 9.25V4.75C7 4.34375 7.32812 4 7.75 4ZM5.25 6H6.5V7H5.5V11H8.5V10.5H9.5V11.25C9.5 11.6719 9.15625 12 8.75 12H5.25C4.82812 12 4.5 11.6719 4.5 11.25V6.75C4.5 6.34375 4.82812 6 5.25 6Z"
            fill="var(--pc-color-neutral-on-normal)"
        />
    </g>
</svg>
