<svg
    xmlns="http://www.w3.org/2000/svg"
    width="64"
    height="64"
    viewBox="0 0 48 48"
    fill="none"
>
    <rect
        x="27.5"
        y="1.5"
        width="19"
        height="19"
        rx="6"
        stroke="var(--pc-color-neutral-border-normal)"
        stroke-width="3"
    />
    <rect
        x="1.5"
        y="1.5"
        width="19"
        height="19"
        rx="6"
        stroke="var(--pc-color-neutral-border-normal)"
        stroke-width="3"
    />
    <rect
        x="1.5"
        y="27.5"
        width="19"
        height="19"
        rx="6"
        stroke="var(--pc-color-neutral-border-normal)"
        stroke-width="3"
    />
    <rect
        x="33"
        y="7"
        width="8"
        height="8"
        rx="2"
        fill="var(--pc-color-neutral-border-normal)"
    />
    <rect
        x="7"
        y="7"
        width="8"
        height="8"
        rx="2"
        fill="var(--pc-color-neutral-border-normal)"
    />
    <rect
        x="7"
        y="33"
        width="8"
        height="8"
        rx="2"
        fill="var(--pc-color-neutral-border-normal)"
    />
    <path
        d="M26 28C26 26.8954 26.8954 26 28 26H34V34H26V28Z"
        fill="var(--pc-color-neutral-border-quiet)"
    />
    <path
        d="M34 26H40C41.1046 26 42 26.8954 42 28V32C42 33.1046 41.1046 34 40 34H34V26Z"
        fill="var(--pc-color-neutral-border-quiet)"
    />
    <path
        d="M26 34H34V40C34 41.1046 33.1046 42 32 42H28C26.8954 42 26 41.1046 26 40V34Z"
        fill="var(--pc-color-neutral-border-quiet)"
    />
    <rect
        x="38"
        y="38"
        width="8"
        height="8"
        rx="2"
        fill="var(--pc-color-neutral-border-quiet)"
    />
</svg>
