<svg
    width="97"
    height="64"
    viewBox="0 0 97 16"
    fill="none"
    xmlns="http://www.w3.org/2000/svg"
>
    <path
        d="M9.16407 0.39878C9.03738 0.15525 8.78092 0 8.50282 0C8.22473 0 7.96826 0.15525 7.84157 0.39878L5.56737 4.7884L0.626542 5.56161C0.351536 5.60423 0.12288 5.79601 0.0363616 6.0578C-0.050157 6.3196 0.0209118 6.60575 0.215579 6.80057L3.75048 10.2861L2.97181 15.1536C2.92855 15.4246 3.04288 15.6985 3.26845 15.8599C3.49401 16.0212 3.79065 16.0456 4.04093 15.9208L8.50282 13.6864L12.9616 15.9208C13.2088 16.0456 13.5085 16.0212 13.7341 15.8599C13.9597 15.6985 14.074 15.4276 14.0307 15.1536L13.249 10.2861L16.7839 6.80057C16.9816 6.60575 17.0496 6.3196 16.9631 6.0578C16.8766 5.79601 16.651 5.60423 16.3729 5.56161L11.4352 4.7884L9.16407 0.39878Z"
        fill="var(--pc-color-warning-fill-loud)"
    />
    <path
        d="M29.1641 0.39878C29.0374 0.15525 28.7809 0 28.5028 0C28.2247 0 27.9683 0.15525 27.8416 0.39878L25.5674 4.7884L20.6265 5.56161C20.3515 5.60423 20.1229 5.79601 20.0364 6.0578C19.9498 6.3196 20.0209 6.60575 20.2156 6.80057L23.7505 10.2861L22.9718 15.1536C22.9286 15.4246 23.0429 15.6985 23.2684 15.8599C23.494 16.0212 23.7906 16.0456 24.0409 15.9208L28.5028 13.6864L32.9616 15.9208C33.2088 16.0456 33.5085 16.0212 33.7341 15.8599C33.9597 15.6985 34.074 15.4276 34.0307 15.1536L33.249 10.2861L36.7839 6.80057C36.9816 6.60575 37.0496 6.3196 36.9631 6.0578C36.8766 5.79601 36.651 5.60423 36.3729 5.56161L31.4352 4.7884L29.1641 0.39878Z"
        fill="var(--pc-color-warning-fill-loud)"
    />
    <path
        d="M49.1641 0.39878C49.0374 0.15525 48.7809 0 48.5028 0C48.2247 0 47.9683 0.15525 47.8416 0.39878L45.5674 4.7884L40.6265 5.56161C40.3515 5.60423 40.1229 5.79601 40.0364 6.0578C39.9498 6.3196 40.0209 6.60575 40.2156 6.80057L43.7505 10.2861L42.9718 15.1536C42.9286 15.4246 43.0429 15.6985 43.2684 15.8599C43.494 16.0212 43.7906 16.0456 44.0409 15.9208L48.5028 13.6864L52.9616 15.9208C53.2088 16.0456 53.5085 16.0212 53.7341 15.8599C53.9597 15.6985 54.074 15.4276 54.0307 15.1536L53.249 10.2861L56.7839 6.80057C56.9816 6.60575 57.0496 6.3196 56.9631 6.0578C56.8766 5.79601 56.651 5.60423 56.3729 5.56161L51.4352 4.7884L49.1641 0.39878Z"
        fill="var(--pc-color-warning-fill-loud)"
    />
    <path
        d="M69.1641 0.39878C69.0374 0.15525 68.7809 0 68.5028 0C68.2247 0 67.9683 0.15525 67.8416 0.39878L65.5674 4.7884L60.6265 5.56161C60.3515 5.60423 60.1229 5.79601 60.0364 6.0578C59.9498 6.3196 60.0209 6.60575 60.2156 6.80057L63.7505 10.2861L62.9718 15.1536C62.9286 15.4246 63.0429 15.6985 63.2684 15.8599C63.494 16.0212 63.7906 16.0456 64.0409 15.9208L68.5028 13.6864L72.9616 15.9208C73.2088 16.0456 73.5085 16.0212 73.7341 15.8599C73.9597 15.6985 74.074 15.4276 74.0307 15.1536L73.249 10.2861L76.7839 6.80057C76.9816 6.60575 77.0496 6.3196 76.9631 6.0578C76.8766 5.79601 76.651 5.60423 76.3729 5.56161L71.4352 4.7884L69.1641 0.39878Z"
        fill="var(--pc-color-warning-fill-loud)"
    />
    <path
        d="M88.5003 0C88.7784 0 89.0348 0.15525 89.1615 0.39878L91.4326 4.7884L96.3735 5.56161C96.6485 5.60423 96.8771 5.79601 96.9636 6.0578C97.0502 6.3196 96.9791 6.60575 96.7844 6.80057L93.2464 10.2861L94.0282 15.1536C94.0714 15.4246 93.9571 15.6985 93.7316 15.8599C93.506 16.0212 93.2063 16.0456 92.9591 15.9208L88.5003 13.6864L84.0415 15.9208C83.7943 16.0456 83.4946 16.0212 83.269 15.8599C83.0434 15.6985 82.9291 15.4276 82.9724 15.1536L83.751 10.2861L80.2161 6.80057C80.0184 6.60575 79.9504 6.3196 80.0369 6.0578C80.1234 5.79601 80.349 5.60423 80.6271 5.56161L85.5679 4.7884L87.8421 0.39878C87.9688 0.15525 88.2253 0 88.5034 0H88.5003ZM88.5003 2.33789L86.7143 5.78383C86.6061 5.99083 86.4053 6.13695 86.1704 6.17348L82.2926 6.7823L85.0673 9.51897C85.2342 9.68335 85.3114 9.91775 85.2744 10.1491L84.6626 13.9695L88.1635 12.2161C88.3736 12.1095 88.6239 12.1095 88.8371 12.2161L92.338 13.9695L91.7262 10.1491C91.6891 9.91775 91.7663 9.68335 91.9332 9.51897L94.708 6.7823L90.8301 6.17348C90.5953 6.13695 90.3944 5.99083 90.2863 5.78383L88.5003 2.33789Z"
        fill="var(--pc-color-neutral-border-loud)"
    />
</svg>
